<svg width="181" height="277" viewBox="0 0 181 277" fill="none" xmlns="http://www.w3.org/2000/svg">
<path d="M72.0198 192.753L71.9378 192.301L74.8837 191.646L90.6292 274.565C90.5721 274.601 90.4898 274.645 90.3741 274.692C89.9539 274.863 89.1307 275.063 87.5849 275.088C87.5445 274.949 87.4948 274.76 87.4359 274.52C87.2875 273.915 87.0892 273.023 86.8478 271.88C86.3654 269.596 85.7146 266.331 84.9532 262.409C83.4305 254.567 81.467 244.109 79.5255 233.649C77.5841 223.19 75.6651 212.731 74.2313 204.887C73.5144 200.965 72.9189 197.696 72.5026 195.408C72.2945 194.264 72.1311 193.365 72.0198 192.753Z" fill="#FFC5BA" stroke="black"/>
<path d="M78.5897 176.972L78.5035 176.61L81.4111 175.767L99.8134 250.098C99.7568 250.135 99.678 250.18 99.5701 250.231C99.1515 250.425 98.3348 250.677 96.7995 250.828C96.7576 250.71 96.7065 250.554 96.6462 250.36C96.4789 249.821 96.2523 249.024 95.9742 248.001C95.4186 245.956 94.6627 243.028 93.7747 239.51C91.999 232.475 89.6976 223.088 87.418 213.697C85.1386 204.307 82.8812 194.915 81.1937 187.87C80.35 184.348 79.6487 181.412 79.1584 179.357C78.9133 178.33 78.7208 177.523 78.5897 176.972Z" fill="#FFC5BA" stroke="black"/>
<path d="M46.6923 133.522L46.786 132.784L49.7652 133.206L36.5852 242.374C36.5243 242.397 36.4262 242.424 36.2782 242.436C35.8501 242.47 35.0263 242.379 33.5664 241.762C33.5733 241.558 33.5925 241.258 33.624 240.863C33.6887 240.051 33.8035 238.863 33.9619 237.352C34.2785 234.33 34.7676 230.028 35.3737 224.871C36.5857 214.557 38.2647 200.833 39.9647 187.117C41.6647 173.402 43.3857 159.695 44.6817 149.418C45.3297 144.279 45.8714 139.997 46.2511 137.001C46.441 135.502 46.5904 134.325 46.6923 133.522Z" fill="#FFC5BA" stroke="black"/>
<rect x="13.5981" y="121.084" width="7" height="27" fill="#FFC5BA" stroke="black"/>
<path d="M33.7605 132.974C33.0609 132.446 32.7111 128.219 33.7605 127.691C34.8099 127.162 70.486 128.747 70.8358 129.276C71.1856 129.804 71.1856 131.918 70.8358 132.974C70.486 134.031 34.4601 133.503 33.7605 132.974Z" fill="#FD8687" stroke="black"/>
<path d="M1.59818 73.5844C2.24853 69.5844 20.0981 68.0845 27.5981 73.5844C30.292 75.5599 30.292 93.0844 30.292 121.55C30.292 123.535 7.47186 126.127 4.49534 121.55C1.51882 116.973 0.109917 82.7381 1.59818 73.5844Z" fill="#FD8687" stroke="black"/>
<path d="M11.5984 189.584C6.09824 183.584 12.5991 168.584 7.59848 143.584C7.19843 141.584 22.5984 141.084 25.0984 143.584C27.5984 146.084 26.0984 160.584 31.5984 165.584C37.0983 170.584 81.0984 168.584 89.0983 168.584C98.1569 168.584 99.5984 178.584 95.0983 186.084C89.2321 195.861 13.8902 192.084 11.5984 189.584Z" fill="#FD8687" stroke="black"/>
<path d="M15.1636 192.065L14.8227 192.057L14.8647 189.052L88.6714 190.084C88.6893 190.148 88.7082 190.234 88.7237 190.347C88.7855 190.8 88.7868 191.65 88.4938 193.164C88.3753 193.174 88.2223 193.183 88.0336 193.192C87.4897 193.217 86.6899 193.234 85.6664 193.244C83.6214 193.263 80.7048 193.252 77.2051 193.22C70.2067 193.155 60.8878 193.002 51.572 192.828C42.2564 192.654 32.9453 192.459 25.963 192.306C22.4718 192.23 19.5629 192.165 17.5268 192.119C16.5088 192.096 15.7089 192.077 15.1636 192.065Z" fill="#FFC5BA" stroke="black"/>
<path d="M21.0035 137.425L21.1296 136.425L24.1082 136.847L8.06748 269.5C8.01282 269.533 7.90945 269.579 7.73376 269.601C7.3241 269.653 6.51281 269.574 5.05885 268.865C5.05964 268.845 5.06057 268.823 5.06166 268.8C5.07344 268.549 5.10098 268.174 5.14406 267.679C5.23003 266.692 5.37581 265.25 5.57342 263.416C5.96851 259.75 6.56943 254.53 7.3095 248.273C8.78956 235.759 10.8254 219.106 12.8821 202.462C14.9387 185.819 17.0162 169.186 18.5795 156.714C19.3611 150.478 20.0142 145.283 20.4719 141.646C20.7008 139.827 20.8808 138.399 21.0035 137.425Z" fill="#FFC5BA" stroke="black"/>
<path d="M178.339 270.566C168.246 267.893 161.94 258.594 160.246 252.646L151.75 252.922C153.494 260.369 147.577 270.287 152.868 271.896C156.5 273 157.412 273.604 176 276C181.497 275.821 180.357 271.101 178.339 270.566Z" fill="#31345F" stroke="black"/>
<path d="M161.5 271C151.5 268 145.5 258.5 144 252.5L135.5 252.5C137 260 130.577 270.415 136 271.5C141 272.5 142 273 160.5 276C166 276 163.5 271.6 161.5 271Z" fill="#31345F" stroke="black"/>
<path d="M162 253.5C160.4 254.3 154.333 253.833 151.5 253.5C144.7 250.7 125 187.667 116 156.5L46.5 145.5L42 132L64 130.5L65.5 137.5C85 137.833 126.3 141.1 135.5 151.5C147 164.5 164 252.5 162 253.5Z" fill="#2D4384" stroke="black"/>
<path d="M26.0003 176C16.0003 168 23.5004 144 27.5004 133.5C32.3004 133.5 41.667 129 46.0004 129C45.4481 129.022 46.5002 141.8 50.5002 141C55.5002 140 110.5 145.5 124 153C134.8 159 144 233 146 255C146 255 134.868 255 133.5 253.5C118 236.5 98.4363 175.091 92.0002 176C46.0004 182.5 26.0003 176 26.0003 176Z" fill="#2D4384" stroke="black"/>
<path d="M42.7565 61.5C44.3565 59.9 44.4232 50.8333 44.2565 46.5C49.2565 45.6667 59.0565 44.5 58.2565 46.5C57.4565 48.5 57.4231 56.8333 58.7565 61C58.2565 62.6667 59.0565 66.6 56.2565 67C52.7565 67.5 40.7565 63.5 42.7565 61.5Z" fill="#FFC5BA" stroke="black"/>
<path d="M55.7563 52C47.8098 53.5142 42.423 47.8333 40.7563 45L33.7563 40.5L27.7563 33.5L36.7563 20.5L54.2563 17C59.0897 16.3333 66.7647 16.8239 67.7563 24C69 33 71.5 49 55.7563 52Z" fill="#FFC5BA" stroke="black"/>
<path d="M59.2563 26.5C60.423 28.6667 62.6563 33.5 62.2563 35.5C61.8563 37.5 60.0897 38 59.2563 38" stroke="black"/>
<path d="M52.2563 41C52.923 42.1667 55.3563 44.3 59.7563 43.5" stroke="black"/>
<path d="M52.2563 41C52.923 42.1667 55.3563 44.3 59.7563 43.5" stroke="black"/>
<ellipse cx="53" cy="30.5" rx="1" ry="1.5" fill="black"/>
<ellipse cx="64" cy="30.5" rx="1" ry="1.5" fill="black"/>
<path d="M75.4694 126C78 132.5 83.5 138.5 84.5 138.5C85.5 138.5 98 139.5 98 139.5C96.5 132.5 93.1416 122.726 89 108C84.5 92 75.4694 66 75.4694 66L66 66.5001L75.4694 114C75.4694 114 72.9387 119.5 75.4694 126Z" fill="white" stroke="black"/>
<path d="M53.4692 63C50.2692 63 45.3025 59.1667 42.4691 57C37.4691 57.8333 26.4691 58.8125 19.4691 64.5C11.4691 71 25.4691 85.5 25.4691 85.5L25.4692 105L26.4691 135L74.4981 130L75.4692 118.5L77.4981 106C77.9981 105 79.4981 70.4318 75.4692 66C73.5666 63.9071 62.9692 59.8333 58.4692 58.5C58.3025 59.8333 56.6692 63 53.4692 63Z" fill="white"/>
<path d="M77.4981 106C77.9981 105 79.4981 70.4318 75.4692 66C73.5666 63.9071 62.9692 59.8333 58.4692 58.5C58.3025 59.8333 56.6692 63 53.4692 63C50.2692 63 45.3025 59.1667 42.4691 57C37.4691 57.8333 26.4691 58.8125 19.4691 64.5C11.4691 71 25.4691 85.5 25.4691 85.5L25.4692 105L26.4691 135L74.4981 130L75.4692 118.5L77.4981 106ZM77.4981 106C77.0981 106.8 75.4981 120.5 77.4981 106Z" stroke="black"/>
<path d="M51.5003 131.5C52.0003 132.5 56.5003 138 57.0003 138.5C57.5003 139 59.5 147 62 147C62.3477 147 62.3608 146.606 62.2202 146.061C62.7121 147.408 63.317 148.455 64 148C64.4208 147.79 64.3989 146.783 64.2697 145.575C64.5892 146.916 65.2319 147.923 66.5 147.5C67.1183 147.294 65.4539 142.347 66 140C66 140 65.5 143.5 66.9999 144.5C68.4998 145.5 67.1763 138.853 67.0001 138.5C65.5008 135.5 64.3483 133.279 64 133C61.5 131 55.0621 125 52.0003 125C49.5508 125 40.7372 125.424 33.9757 125L29.0002 130.401L33.9757 134.214L50.5003 131C50.7206 131.22 51.5003 131.5 51.5003 131.5Z" fill="#FFC5BA"/>
<path d="M50.5003 131L33.9757 134.214L29.0002 130.401L33.9757 125C40.7372 125.424 49.5508 125 52.0003 125C55.0621 125 61.5 131 64 133C64.3483 133.279 65.5008 135.5 67.0001 138.5C67.1763 138.853 68.4998 145.5 66.9999 144.5C65.5 143.5 66 140 66 140M50.5003 131C50.5003 131 50.1318 130.461 50.0003 129.5C49.9325 129.005 50.0003 130.5 50.5003 131ZM50.5003 131C50.7206 131.22 51.5003 131.5 51.5003 131.5C52.0003 132.5 56.5003 138 57.0003 138.5C57.5003 139 59.5 147 62 147C63 147 61.2322 143.743 61 143C60.9317 142.782 60.9067 141.968 60.7663 141.411C60.4291 140.073 59.8531 138.412 59.5 137C59.4809 136.924 59.638 138.112 60.5 140.5C60.7005 141.055 60.715 141.43 61 142C61.3764 142.753 62.5 149 64 148C65 147.5 63.5 142.5 64 141M64 141C63 138.5 62.5 138 62.5 137C62.5 137 62.5 138 64 141ZM64 141C64 141.5 63.5002 148.5 66.5 147.5C67.1183 147.294 65.4539 142.347 66 140M66 140C66.1017 139.563 64 136 63.5 133.5C63.5 135 65 137 66 140Z" stroke="black" stroke-width="0.3"/>
<path d="M19.3066 117C19.3066 117 22.5 114 25.5 106.5L31.5 91.5C31.5 91.5 31.5 66 25.5 70C19.5 74 19.3066 66 19.3066 66C19.3066 66 -0.693288 116 2.30664 129C3.19246 132.839 20.3067 136 50.8067 132.5L49.3067 124.5L19.3066 117Z" fill="white" stroke="black"/>
<path d="M39.853 34.8449C39.353 37.1782 41.9563 43.4 40.7563 45L44.2563 49C44.2563 52.5 44.2563 53.5 43.9697 56C40.7563 73.5 46.2562 74.5 46.2562 78.5C44.2563 86 36.2562 76.5 31.7562 77C26.2562 77.6111 31.2563 80 20.3532 81.3449C13.2562 80.5 16.8531 56.3449 17.3532 50.8449C17.3532 46.8449 22.8458 21.2942 23.353 19.8449C26.853 9.84491 33.853 4.84491 39.853 2.34491C45.0132 0.194844 58.3531 0.344904 66.3531 4.84489C69.5257 6.62946 76.7563 15.5 73.2563 22.8449C73.2563 22.8449 69.2563 25 61.3531 22.8449C58.2417 21.9965 51.853 27.1782 48.853 25.8449H45.353L42.353 40.3449V27.3449C41.5197 26.3449 39.253 24.9449 36.853 27.3449C34.453 29.7449 37.853 33.3449 39.853 34.8449Z" fill="#8C756A" stroke="black"/>
<path d="M3.95227 136.974C3.05014 136.446 2.59909 132.219 3.95227 131.691C5.30545 131.162 51.3089 132.747 51.7599 133.276C52.2109 133.804 52.2109 135.918 51.7599 136.974C51.3089 138.031 4.85441 137.503 3.95227 136.974Z" fill="#FD8687" stroke="black"/>
</svg>
