<svg width="217" height="317" viewBox="0 0 217 317" fill="none" xmlns="http://www.w3.org/2000/svg">
<path d="M72.4382 201.066L72.3688 200.712L75.3118 200.108L90.5233 274.123C90.4653 274.155 90.3851 274.193 90.2766 274.233C89.849 274.392 89.0208 274.576 87.4782 274.609C87.4417 274.491 87.3978 274.337 87.3465 274.145C87.2023 273.607 87.0099 272.811 86.7757 271.79C86.3076 269.749 85.6773 266.832 84.9402 263.327C83.4662 256.318 81.5675 246.97 79.6908 237.621C77.8142 228.273 75.9599 218.924 74.5746 211.912C73.882 208.406 73.3067 205.485 72.9046 203.44C72.7035 202.417 72.5457 201.614 72.4382 201.066Z" fill="#FFC5BA" stroke="black"/>
<path d="M78.4945 183.981L78.4171 183.681L81.3194 182.903L99.7038 251.514C99.6471 251.548 99.57 251.588 99.467 251.633C99.0446 251.814 98.2256 252.046 96.6918 252.187C96.6524 252.082 96.605 251.948 96.5496 251.783C96.3828 251.287 96.1564 250.551 95.8784 249.606C95.3229 247.717 94.5672 245.013 93.6792 241.763C91.9036 235.263 89.6023 226.589 87.3227 217.913C85.0433 209.237 82.786 200.559 81.0985 194.05C80.2547 190.795 79.5535 188.083 79.0632 186.185C78.818 185.235 78.6256 184.49 78.4945 183.981Z" fill="#FFC5BA" stroke="black"/>
<path d="M46.5948 143.836L46.6834 143.191L49.6615 143.58L36.4907 244.377C36.428 244.397 36.3319 244.419 36.1925 244.43C35.7572 244.462 34.9291 244.376 33.4708 243.807C33.4784 243.622 33.4971 243.356 33.5269 243.011C33.5915 242.261 33.7063 241.164 33.8646 239.768C34.1811 236.977 34.6702 233.002 35.2763 228.237C36.4883 218.708 38.1672 206.028 39.8673 193.355C41.5673 180.683 43.2882 168.019 44.5842 158.522C45.2322 153.775 45.7739 149.819 46.1536 147.05C46.3435 145.665 46.4929 144.577 46.5948 143.836Z" fill="#FFC5BA" stroke="black"/>
<path d="M207.782 73.6576C206.744 72.4082 202.746 65.5 204.246 65.5C205.301 65.5 206.604 68.2237 207.323 69.2159C207.394 69.314 207.604 69.4942 207.858 69.6571C207.858 69.6035 207.854 69.2694 207.858 69.2159C207.867 69.0681 207.627 67.0505 207.246 65.5C206.628 62.9886 205.246 59.9999 205.746 59.5C206.246 59 208.006 65 208.746 65C209.486 65 206.746 59 207.246 57.5C207.746 56 210.246 65 210.746 65C211.132 65 209.882 59.4552 210.246 58C210.746 56 212.298 65.2764 212.746 65.5L213.087 65.3474C213.567 64.4053 213.104 60.1422 213.246 60C213.746 59.5 214.246 60 214.556 64.2569C214.781 67.3378 214.133 70.4128 213.971 72.7579C213.842 74.634 213.911 85.5165 213.962 90.7233L208.515 94.1776L205.118 90.1151L207.782 73.6576Z" fill="#FFC5BA"/>
<path d="M212.746 65.5C212.298 65.2764 210.746 56 210.246 58C209.882 59.4552 211.132 65 210.746 65C210.246 65 207.746 56 207.246 57.5C206.746 59 209.486 65 208.746 65C208.006 65 206.246 59 205.746 59.5C205.246 59.9999 206.628 62.9886 207.246 65.5C207.627 67.0505 207.867 69.0681 207.858 69.2159C207.854 69.2694 207.858 69.6035 207.858 69.6571C207.858 69.7107 208.819 70.012 208.746 70C208.246 70 207.474 69.4238 207.323 69.2159C206.604 68.2237 205.301 65.5 204.246 65.5C202.746 65.5 206.744 72.4082 207.782 73.6576L205.118 90.1151L208.515 94.1776L213.962 90.7233C213.911 85.5165 213.842 74.634 213.971 72.7579C214.133 70.4128 214.781 67.3378 214.556 64.2569C214.246 60 213.746 59.5 213.246 60C213.104 60.1422 213.567 64.4053 213.087 65.3474M212.746 65.5C212.893 65.5736 213.004 65.51 213.087 65.3474M212.746 65.5L213.087 65.3474" stroke="black" stroke-width="0.3"/>
<path d="M210.746 72.5C210.691 71.7949 210.769 68 208.246 67.5" stroke="black" stroke-width="0.3"/>
<path d="M164.5 60V48.5L152 43.5L149.5 45L164.5 60Z" fill="black" stroke="black"/>
<path d="M177.5 31L181 37.5L175.5 39V41.5C175.5 41.5 168.843 39.8819 168.5 40.5C166 45 172.5 47.5 172.5 47.5C172.5 47.5 171 50.6667 168.5 51.5C165.516 52.4947 152.473 45.9042 151.514 45.0138L164.5 57.5C164.5 60.5 158.5 70.5 154 69C142.537 65.179 139 52 139 50.5C139 49.3 140.333 46.6667 141 45.5C142.5 45.5 145.8 45.1 147 43.5C148.2 41.9 149.5 36.8333 150 34.5C148 33 144.6 29.4 147 27C149.4 24.6 152.167 25.5 153 26.5L153.5 38L155.5 25.5H159C162 26.8333 168.7 24.1 171.5 22.5C174.3 20.9 174.5 19 174.5 19C174.5 19 176.403 20.4999 178.5 19.5L177.5 31Z" fill="#FFC5BA" stroke="black"/>
<path d="M166.717 309.948C156.717 306.948 150.717 297.448 149.217 291.448L140.717 291.448C142.217 298.948 135.794 309.364 141.217 310.448C146.217 311.448 147.217 311.948 165.717 314.948C171.217 314.948 168.717 310.548 166.717 309.948Z" fill="#31345F" stroke="black"/>
<path d="M204.803 307.541C194.483 305.962 187.219 297.389 184.898 291.657L176.481 292.84C179.011 300.058 174.188 310.551 179.621 311.585C183.35 312.295 184.321 312.797 203.059 313.193C208.505 312.428 206.867 307.856 204.803 307.541Z" fill="#31345F" stroke="black"/>
<path d="M176.667 294C164.267 270.8 159.167 173.333 158.167 141.5V128H176.167C176.167 134.833 181.473 142.755 183.5 153.5C188.5 180 190.667 261.5 187.167 294C187.167 294 177.052 294.72 176.667 294Z" fill="#2D4384" stroke="black"/>
<path d="M139.667 295C131.167 252.5 124.285 172 127 152C128.018 144.5 136.167 128 136.167 128H159.167C159.167 131.877 159.972 134.316 160.668 139.5C161.199 143.453 161.667 149.001 161.667 158C161.667 178.8 157.667 263 150.167 295C150.167 295 139.828 295.801 139.667 295Z" fill="#2D4384" stroke="black"/>
<path d="M167.5 25C169.5 23.5 173.5 24.5 176 25" stroke="black"/>
<ellipse cx="171" cy="29.5" rx="1" ry="1.5" fill="black"/>
<path d="M203.999 126.5C190.499 126.5 186.47 113.5 186.47 113.5L183.499 105L172 65.5001L181.469 65C181.469 65 196.644 95.3032 199.536 102.5C199.698 102.904 199.261 105.235 198.751 107.598C199.136 106.049 199.57 104.402 199.999 103C201.602 97.7513 205.628 84.9377 206.999 74.9999H213.999C213.999 74.9999 217.499 126.5 203.999 126.5Z" fill="white" stroke="black"/>
<path d="M159 65C153 67 149.333 57.1667 146.5 55C141.5 55.8333 132.469 57.8125 125.469 63.5C117.469 70 131.469 84.5 131.469 84.5L131.469 104L132.469 134L180.498 129L181.469 117.5L183.498 105C183.998 104 185.498 69.4318 181.469 65C179.567 62.9071 168.969 58.8333 164.469 57.5C164.469 61 162.036 63.9881 159 65Z" fill="white"/>
<path d="M183.498 105C183.998 104 185.498 69.4318 181.469 65C179.567 62.9071 168.969 58.8333 164.469 57.5C164.469 61 162.036 63.9881 159 65C153 67 149.333 57.1667 146.5 55C141.5 55.8333 132.469 57.8125 125.469 63.5C117.469 70 131.469 84.5 131.469 84.5L131.469 104L132.469 134L180.498 129L181.469 117.5L183.498 105ZM183.498 105C183.098 105.8 181.498 119.5 183.498 105Z" stroke="black"/>
<path d="M157.5 130.5C158 131.5 162.5 137 163 137.5C163.5 138 165.5 146 168 146C168.347 146 168.361 145.606 168.22 145.061C168.712 146.408 169.317 147.455 170 147C170.421 146.79 170.399 145.783 170.269 144.575C170.589 145.916 171.232 146.923 172.5 146.5C173.118 146.294 171.454 141.347 172 139C172 139 171.5 142.5 173 143.5C174.5 144.5 173.176 137.853 173 137.5C171.501 134.5 170.348 132.279 170 132C167.5 130 161.062 124 158 124C155.551 124 146.737 124.424 139.975 124L135 129.401L139.975 133.214L156.5 130C156.72 130.22 157.5 130.5 157.5 130.5Z" fill="#FFC5BA"/>
<path d="M156.5 130L139.975 133.214L135 129.401L139.975 124C146.737 124.424 155.551 124 158 124C161.062 124 167.5 130 170 132C170.348 132.279 171.501 134.5 173 137.5C173.176 137.853 174.5 144.5 173 143.5C171.5 142.5 172 139 172 139M156.5 130C156.5 130 156.132 129.461 156 128.5C155.932 128.005 156 129.5 156.5 130ZM156.5 130C156.72 130.22 157.5 130.5 157.5 130.5C158 131.5 162.5 137 163 137.5C163.5 138 165.5 146 168 146C169 146 167.232 142.743 167 142C166.932 141.782 166.906 140.968 166.766 140.411C166.429 139.073 165.853 137.412 165.5 136C165.481 135.924 165.638 137.112 166.5 139.5C166.7 140.055 166.715 140.43 167 141C167.376 141.753 168.5 148 170 147C171 146.5 169.5 141.5 170 140M170 140C169 137.5 168.5 137 168.5 136C168.5 136 168.5 137 170 140ZM170 140C170 140.5 169.5 147.5 172.5 146.5C173.118 146.294 171.454 141.347 172 139M172 139C172.101 138.563 170 135 169.5 132.5C169.5 134 171 136 172 139Z" stroke="black" stroke-width="0.3"/>
<path d="M125.307 116C125.307 116 128.5 113 131.5 105.5L137.5 90.5C137.5 90.5 137.5 65 131.5 69C125.5 73 125.307 65 125.307 65C125.307 65 105.307 115 108.307 128C109.192 131.839 126.307 135 156.807 131.5L155.307 123.5L125.307 116Z" fill="white" stroke="black"/>
<path d="M150.597 47C155 59 150.31 65.6031 153.097 73.5C156.097 82 143.903 77.5 133 69.5C129.604 68.8825 121.756 81.7157 120.5 78C118 73.5 123 65.5 125.5 57.5C126.5 49.5 131.472 27.3449 134.097 19.8449C137.597 9.84491 144.597 4.84491 150.597 2.34491C155.757 0.194844 169.097 0.344904 177.097 4.84489C180.269 6.62946 185.097 11.8449 184.097 15.8449C182.979 20.317 177.597 20.6782 175.097 19.3449C175.097 19.3449 174.897 21.2449 172.097 22.8449C169.297 24.4449 162.597 27.1782 159.597 25.8449H156.097L153.097 40.3449V27.3449C152.263 26.3449 149.997 24.9449 147.597 27.3449C145.197 29.7449 148.597 33.3449 150.597 34.8449C150.097 37.1782 149.908 45.1224 150.597 47Z" fill="#8C756A" stroke="black"/>
<rect x="13.5" y="131.5" width="7" height="27" fill="#FFC5BA" stroke="black"/>
<path d="M33.6624 143.39C32.9628 142.862 32.613 138.635 33.6624 138.106C34.7118 137.578 70.3879 139.163 70.7377 139.691C71.0874 140.22 71.0874 142.333 70.7377 143.39C70.3879 144.447 34.362 143.918 33.6624 143.39Z" fill="#FD8687" stroke="black"/>
<path d="M1.50004 84C2.15039 79.9999 20 78.5 27.5 84C30.1938 85.9755 30.1938 103.5 30.1938 131.966C30.1938 133.95 7.37371 136.543 4.39719 131.966C1.42067 127.389 0.0117728 93.1536 1.50004 84Z" fill="#FD8687" stroke="black"/>
<path d="M11.5 200C5.99985 194 12.5007 179 7.50009 154C7.10004 152 22.5 151.5 25 154C27.5 156.5 26 171 31.5 176C37 181 81 179 88.9999 179C98.0585 179 99.5 189 94.9999 196.5C89.1337 206.277 13.7918 202.5 11.5 200Z" fill="#FD8687" stroke="black"/>
<path d="M15.0657 202.48L14.7248 202.472L14.7668 199.468L88.5735 200.5C88.5914 200.563 88.6103 200.649 88.6258 200.763C88.6876 201.216 88.6889 202.065 88.3959 203.579C88.2774 203.589 88.1244 203.599 87.9357 203.607C87.3918 203.633 86.592 203.65 85.5685 203.659C83.5235 203.678 80.6069 203.668 77.1072 203.635C70.1088 203.57 60.7899 203.418 51.4741 203.244C42.1585 203.07 32.8474 202.874 25.8651 202.722C22.3739 202.646 19.465 202.58 17.4289 202.534C16.4109 202.511 15.611 202.493 15.0657 202.48Z" fill="#FFC5BA" stroke="black"/>
<path d="M20.9058 147.442L21.0269 146.554L24.0043 146.944L7.97226 269.443C7.9144 269.472 7.81268 269.51 7.64914 269.529C7.23101 269.578 6.41452 269.502 4.96307 268.85C4.96351 268.84 4.96398 268.83 4.96449 268.82C4.97619 268.59 5.00362 268.245 5.04667 267.788C5.13256 266.876 5.27828 265.545 5.47587 263.851C5.87091 260.464 6.47179 255.641 7.21185 249.86C8.69188 238.298 10.7277 222.911 12.7844 207.533C14.841 192.156 16.9185 176.788 18.4818 165.264C19.2634 159.502 19.9165 154.702 20.3742 151.342C20.603 149.662 20.783 148.342 20.9058 147.442Z" fill="#FFC5BA" stroke="black"/>
<path d="M3.85413 147.39C2.95199 146.862 2.50095 142.635 3.85413 142.106C5.2073 141.578 51.2107 143.163 51.6617 143.691C52.1128 144.22 52.1128 146.333 51.6617 147.39C51.2107 148.447 4.75626 147.918 3.85413 147.39Z" fill="#FD8687" stroke="black"/>
</svg>
